<?xml version="1.0" standalone="no"?>
<!DOCTYPE svg PUBLIC "-//W3C//DTD SVG 20010904//EN"
 "http://www.w3.org/TR/2001/REC-SVG-20010904/DTD/svg10.dtd">
<svg version="1.0" xmlns="http://www.w3.org/2000/svg"
 width="300.000000pt" height="300.000000pt" viewBox="0 0 300.000000 300.000000"
 preserveAspectRatio="xMidYMid meet">
<metadata>
Created by potrace 1.16, written by Peter Selinger 2001-2019
</metadata>
<g transform="translate(0.000000,300.000000) scale(0.100000,-0.100000)"
fill="#000000" stroke="none">
<path d="M1465 2578 c-21 -95 -41 -180 -45 -188 -5 -10 -36 -20 -80 -28 -39
-7 -107 -26 -151 -43 -88 -34 -266 -146 -252 -160 4 -4 61 -42 126 -83 l117
-75 58 28 c175 89 366 91 536 7 l70 -34 118 75 c65 41 120 79 123 84 3 4 -16
24 -42 43 -107 79 -274 150 -379 162 -29 4 -57 10 -64 14 -6 4 -29 88 -51 186
-22 98 -41 180 -43 181 -2 2 -20 -75 -41 -169z"/>
<path d="M801 2023 c-76 -102 -130 -223 -156 -349 -9 -43 -17 -79 -18 -81 -2
-1 -86 -20 -187 -43 -101 -23 -186 -42 -187 -44 -2 -1 43 -13 99 -25 57 -13
142 -32 189 -43 l87 -19 7 -47 c19 -140 82 -291 170 -411 l46 -63 80 126 80
127 -35 72 c-47 95 -66 174 -66 272 0 98 19 177 64 270 29 58 33 72 22 85 -7
8 -43 63 -80 123 -38 59 -69 107 -70 107 -2 0 -22 -26 -45 -57z"/>
<path d="M2089 1957 l-76 -122 28 -50 c53 -96 72 -170 73 -285 0 -120 -16
-187 -70 -291 l-35 -67 78 -121 c43 -66 80 -121 83 -121 12 1 102 131 134 196
37 75 86 228 86 273 0 14 4 31 8 37 4 5 83 27 177 48 93 20 171 38 172 40 2 1
-77 20 -174 42 l-177 39 -12 72 c-16 95 -39 163 -85 253 -40 77 -106 171 -124
176 -5 2 -44 -52 -86 -119z"/>
<path d="M1425 1978 c-27 -5 -86 -26 -130 -47 -302 -143 -368 -547 -128 -787
59 -60 171 -119 252 -134 274 -51 538 136 581 412 39 253 -134 500 -389 554
-74 15 -114 16 -186 2z m243 -196 c29 -27 52 -56 52 -65 0 -8 6 -18 13 -20 9
-4 9 -6 0 -6 -7 -1 -28 13 -48 30 -20 17 -33 24 -29 15 3 -9 10 -16 15 -16 5
0 9 -4 9 -10 0 -11 -28 -9 -49 4 -9 6 -12 5 -9 -5 3 -8 22 -15 45 -17 43 -3
70 -23 58 -42 -4 -7 -25 -9 -52 -7 -36 4 -51 12 -78 44 -19 22 -32 45 -29 54
3 11 -3 19 -18 23 l-23 7 22 9 c25 10 83 -5 83 -23 0 -6 3 -7 6 -4 4 4 1 13
-6 22 -11 13 -10 14 6 9 28 -10 6 11 -31 30 -25 13 -26 16 -9 16 11 0 44 -22
72 -48z m-194 12 c24 -23 19 -26 -14 -9 -27 14 -30 14 -40 -5 -9 -17 -8 -20
13 -20 33 0 47 -18 40 -52 -4 -22 0 -33 18 -49 90 -78 92 -79 136 -79 42 0 43
-1 32 -21 -6 -12 -14 -18 -18 -13 -3 6 -13 9 -21 9 -8 0 -18 3 -21 8 -3 4 -12
0 -20 -9 -9 -12 -10 -15 -1 -10 30 18 8 -16 -37 -55 -42 -37 -48 -47 -40 -67
5 -12 8 -26 8 -30 -1 -4 0 -11 1 -17 6 -26 -3 -81 -17 -102 -17 -25 -43 -31
-43 -9 0 8 -4 16 -10 18 -5 2 -11 16 -12 31 -1 16 -8 33 -15 39 -7 6 -13 17
-13 25 0 11 6 8 21 -8 l20 -24 -7 25 c-4 14 -11 40 -15 59 -4 19 -14 38 -21
42 -7 5 -8 9 -3 9 6 0 16 9 22 20 11 16 9 24 -15 51 -15 19 -25 42 -24 55 2
12 -2 25 -9 30 -7 4 -10 3 -5 -4 3 -6 -1 -18 -10 -26 -14 -15 -14 -17 0 -22
30 -11 16 -29 -24 -31 l-40 -3 1 38 c0 20 3 32 5 26 8 -19 43 -3 61 27 12 20
23 27 35 23 10 -3 23 -2 30 2 9 6 5 10 -12 14 -22 5 -22 7 -8 20 15 14 15 17
-3 36 -23 24 -18 45 14 60 32 16 44 16 61 -2z m236 -375 c8 -15 8 -24 0 -34
-19 -22 31 -98 58 -88 10 4 13 2 8 -5 -4 -7 -11 -12 -16 -12 -5 0 -23 -13 -40
-30 -37 -36 -25 -41 13 -6 15 14 29 21 32 16 3 -5 -4 -14 -15 -20 -11 -6 -20
-20 -20 -30 0 -11 -6 -20 -12 -21 -7 0 -4 -4 7 -9 17 -7 18 -9 2 -9 -9 -1 -26
-5 -37 -11 -11 -5 -29 -14 -40 -20 -27 -14 -37 -13 -17 3 12 8 14 16 7 27 -8
13 -10 13 -10 -1 0 -9 -12 -21 -26 -27 -14 -7 -22 -17 -19 -22 3 -6 1 -10 -4
-10 -6 0 -11 5 -11 11 0 7 -10 9 -25 7 -15 -3 -25 -1 -25 7 0 7 -16 12 -37 13
-21 1 -39 6 -41 12 -2 5 -15 10 -28 10 -13 0 -24 5 -24 10 0 6 -12 15 -26 21
-39 14 -23 21 25 10 27 -6 39 -5 35 1 -4 7 6 8 27 3 19 -4 36 -11 37 -16 2 -5
10 -9 18 -9 8 0 14 -4 14 -10 0 -13 57 -13 65 0 4 6 -7 26 -24 46 -31 34 -31
35 -15 67 9 18 23 36 30 40 20 11 17 27 -3 27 -13 0 -8 7 14 21 31 20 33 20
60 2 15 -10 24 -12 20 -5 -5 6 -4 12 2 12 5 0 12 -6 15 -12 4 -9 5 -8 5 2 -2
29 1 60 6 60 2 0 9 -9 15 -21z"/>
<path d="M1054 904 c-65 -42 -120 -77 -122 -79 -2 -2 26 -24 61 -49 87 -62
217 -122 308 -142 122 -27 110 -12 148 -190 19 -88 37 -167 41 -178 4 -11 22
51 46 160 l39 179 90 16 c117 22 236 68 327 128 115 75 116 67 -22 155 -67 42
-125 76 -129 76 -5 0 -35 -13 -67 -30 -162 -82 -371 -78 -542 9 -22 11 -45 21
-50 21 -5 0 -62 -34 -128 -76z"/>
</g>
</svg>
